:SAMPLES-PER-SECOND 30
:FULLY-SPECIFIED
:DEGREES
33
root  5.58219 40.0426 10.8873 -173.145 15.7024 -177.964
RightUpLeg  -18.0518 -6.03226 0.365823
RightLeg  26.4448 3.77334 1.83166
RightFoot  -1.57762 -3.19442 36.148
RightToes  2.32829e-010 0 -3.6325e-017
Spine  8.59684 0.0377898 -9.68189
Spine1  20.0172 -3.52733 7.49236
HEad  -17.5615 21.1072 -10.5516
LeftShoulder1  1.05029 -0.948693 -16.8891
LeftArm  8.51413 8.91124 -59.9985
LeftForeArm  101.695 -78.743 -111.111
LeftHand  -2.21564 -3.47744 28.731
RightShoulder  0.546799 -0.755179 13.008
RightArm  4.77769 -20.057 61.2375
RightForeArm  112.775 77.2326 124.149
RightHand  -0.833546 3.77689 -10.7975
LeftUpLeg  -17.6109 -1.3044 5.91813
LeftLeg  39.2762 5.78184 5.38657
LeftFoot  5.93748 2.19735 -14.5987
LeftToes  -5.54824e-011 -8.71001e-011 8.3852e-012
34
root  4.81261 39.5743 10.5239 -174.314 18.1871 -178.039
RightUpLeg  -17.9057 -8.25452 3.60788
RightLeg  27.7135 5.34898 2.81037
RightFoot  -1.76873 -2.71927 31.4464
RightToes  2.32829e-010 0 -3.6325e-017
Spine  9.21743 -0.281309 -8.31883
Spine1  19.7367 -3.86536 8.08954
HEad  -17.4992 23.107 -11.9765
LeftShoulder1  0.987614 -0.66658 -16.9828
LeftArm  9.98721 8.29791 -60.6742
LeftForeArm  99.91 -78.7952 -109.953
LeftHand  -2.23347 -3.51739 28.8271
RightShoulder  0.484273 -1.08508 13.1572
RightArm  5.53424 -19.6435 61.1609
RightForeArm  120.752 75.3827 133.646
RightHand  -0.757997 3.48524 -10.147
LeftUpLeg  -18.8102 -4.03437 6.56476
LeftLeg  45.0767 1.6104 2.19007
LeftFoot  4.26512 2.06367 -15.2245
LeftToes  -5.54824e-011 -8.71001e-011 8.3852e-012
35
root  4.00319 38.8851 10.1648 -176.057 21.1706 -179.002
RightUpLeg  -18.0636 -8.6422 4.42935
RightLeg  31.0967 1.7221 0.805398
RightFoot  -5.09247 -1.13495 18.8856
RightToes  2.32829e-010 0 -3.6325e-017
Spine  10.0728 -0.606816 -7.19594
Spine1  19.9311 -3.86337 7.62897
HEad  -18.3797 25.22 -13.5977
LeftShoulder1  0.889702 -0.315249 -16.5631
LeftArm  10.5996 6.94273 -61.625
LeftForeArm  101.776 -78.824 -110.478
LeftHand  -2.32003 -3.56406 29.7366
RightShoulder  0.396388 -1.47295 12.634
RightArm  5.96043 -18.9741 61.7347
RightForeArm  125.462 73.2335 140.733
RightHand  -0.821402 3.5774 -10.8562
LeftUpLeg  -18.9567 -4.75926 6.94397
LeftLeg  50.1382 1.65665 2.62304
LeftFoot  1.52693 1.94927 -17.2432
LeftToes  -5.54824e-011 -8.71001e-011 8.3852e-012
36
root  3.17077 38.0579 9.82783 -178.076 25.1823 179.689
RightUpLeg  -18.8139 -5.15997 3.35636
RightLeg  36.2968 -4.0822 -3.5006
RightFoot  -11.7191 -0.0265087 7.76864
RightToes  2.32829e-010 0 -3.6325e-017
Spine  10.5044 -0.731038 -5.85985
Spine1  21.3211 -3.05548 5.41413
HEad  -20.5652 27.205 -15.3646
LeftShoulder1  0.834849 -0.13502 -16.1838
LeftArm  10.4179 3.89408 -62.1767
LeftForeArm  101.015 -79.0427 -108.227
LeftHand  -2.42436 -3.50066 31.2179
RightShoulder  0.353442 -1.6494 12.1489
RightArm  6.1046 -17.2577 62.3523
RightForeArm  128.316 71.4565 145.094
RightHand  -0.892626 3.77213 -11.5378
LeftUpLeg  -18.4313 -4.01874 7.84175
LeftLeg  54.3771 3.69113 6.01555
LeftFoot  -0.301199 1.63303 -16.7456
LeftToes  -5.54824e-011 -8.71001e-011 8.3852e-012
37
root  2.31182 37.2713 9.51303 -179.866 29.1814 179.145
RightUpLeg  -19.6513 -0.422246 1.91083
RightLeg  41.3101 -6.19917 -6.04835
RightFoot  -17.0606 0.157874 4.99024
RightToes  2.32829e-010 0 -3.6325e-017
Spine  10.6876 -0.999266 -3.38748
Spine1  23.4625 -1.91671 2.3868
HEad  -23.1599 29.0769 -17.241
LeftShoulder1  0.916458 -0.469572 -16.3073
LeftArm  9.74034 -0.674599 -61.9657
LeftForeArm  91.455 -79.4833 -98.194
LeftHand  -2.41626 -3.12939 32.3983
RightShoulder  0.389728 -1.46955 12.2262
RightArm  6.12071 -14.6416 62.4775
RightForeArm  129.017 70.7853 146.452
RightHand  -0.905658 3.72505 -11.7573
LeftUpLeg  -17.4313 -3.59817 10.1189
LeftLeg  57.1856 5.44997 9.53288
LeftFoot  -1.24298 1.16213 -13.0185
LeftToes  -5.54824e-011 -8.71001e-011 8.3852e-012
38
root  1.45542 36.8256 9.17692 179.292 31.4929 179.488
RightUpLeg  -20.126 1.46925 0.671284
RightLeg  43.6264 -4.42853 -4.83458
RightFoot  -18.8399 0.340734 7.20661
RightToes  2.32829e-010 0 -3.6325e-017
Spine  10.9196 -1.69742 -1.28154
Spine1  25.0003 -1.81291 0.712928
HEad  -24.3883 31.1328 -18.8889
LeftShoulder1  1.10976 -1.23221 -16.7195
LeftArm  8.89957 -4.42374 -61.8337
LeftForeArm  74.8522 -79.4825 -81.2897
LeftHand  -2.25443 -2.48678 32.6666
RightShoulder  0.46829 -1.0845 12.4266
RightArm  6.39738 -12.4955 62.3107
RightForeArm  127.41 71.347 145.15
RightHand  -0.890407 3.5234 -11.8126
LeftUpLeg  -16.3897 -4.67854 13.1712
LeftLeg  57.0862 6.92602 11.8551
LeftFoot  -2.2009 0.811256 -9.98661
LeftToes  -5.54824e-011 -8.71001e-011 8.3852e-012
39
root  0.637286 36.9512 8.8193 179.412 32.1296 179.602
RightUpLeg  -20.0537 0.702567 -0.981412
RightLeg  42.4603 -3.05522 -3.29393
RightFoot  -17.5347 0.37974 9.1859
RightToes  2.32829e-010 0 -3.6325e-017
Spine  11.0311 -2.38636 -1.4889
Spine1  25.1557 -2.9976 1.39216
HEad  -23.8229 33.2442 -19.8052
LeftShoulder1  1.25104 -1.78984 -16.9462
LeftArm  8.71358 -5.44213 -62.5937
LeftForeArm  61.6885 -78.7983 -67.1981
LeftHand  -2.07821 -1.96795 32.2633
RightShoulder  0.518779 -0.816286 12.3469
RightArm  7.16844 -12.2102 62.158
RightForeArm  125.975 72.0508 143.522
RightHand  -0.873498 3.39056 -11.7609
LeftUpLeg  -15.5741 -6.43882 15.447
LeftLeg  53.0575 8.61116 12.5371
LeftFoot  -3.30789 0.699967 -9.68324
LeftToes  -5.54824e-011 -8.71001e-011 8.3852e-012
40
root  -0.17958 37.564 8.45719 179.948 32.9647 178.796
RightUpLeg  -19.6089 0.642578 -3.41006
RightLeg  38.4724 -2.99551 -2.83265
RightFoot  -14.2958 0.158216 9.79081
RightToes  2.32829e-010 0 -3.6325e-017
Spine  10.9822 -2.48896 -3.36588
Spine1  24.2585 -4.03163 2.83099
HEad  -22.7427 34.9299 -19.94
LeftShoulder1  1.22017 -1.68097 -16.8314
LeftArm  10.1048 -4.07034 -63.7195
LeftForeArm  58.5878 -78.455 -62.7274
LeftHand  -2.05228 -2.00627 31.7295
RightShoulder  0.514444 -0.82865 12.2672
RightArm  8.36489 -13.8559 61.9054
RightForeArm  127.55 71.6537 144.558
RightHand  -0.848319 3.36139 -11.4675
LeftUpLeg  -14.4555 -7.29971 16.094
LeftLeg  45.6616 10.0046 11.2096
LeftFoot  -3.74112 0.676034 -9.83004
LeftToes  -5.54824e-011 -8.71001e-011 8.3852e-012
41
root  -1.08133 38.3678 8.05516 -179.358 35.1626 177.602
RightUpLeg  -19.1545 2.54824 -6.32048
RightLeg  32.6623 -1.82212 -1.55
RightFoot  -9.35157 -0.271642 11.2801
RightToes  2.32829e-010 0 -3.6325e-017
Spine  10.9222 -2.15265 -4.69371
Spine1  22.7897 -3.90487 2.98162
HEad  -22.1387 36.0743 -19.8369
LeftShoulder1  1.07929 -1.11227 -16.6661
LeftArm  13.0547 -1.50085 -63.9423
LeftForeArm  64.4624 -78.9101 -66.839
LeftHand  -2.17122 -2.64252 30.9603
RightShoulder  0.488271 -0.974316 12.3548
RightArm  9.82848 -16.3655 61.3382
RightForeArm  130.974 70.0578 147.971
RightHand  -0.795433 3.3118 -10.8275
LeftUpLeg  -12.7674 -7.19021 15.4252
LeftLeg  36.9653 10.4036 8.66708
LeftFoot  -2.32629 0.712913 -8.90993
LeftToes  -5.54824e-011 -8.71001e-011 8.3852e-012
42
root  -2.07607 39.0649 7.57164 -178.247 37.9885 176.741
RightUpLeg  -19.1606 3.7398 -9.11425
RightLeg  26.3029 0.500245 0.0528578
RightFoot  -3.45351 -1.04953 14.7049
RightToes  2.32829e-010 0 -3.6325e-017
Spine  10.7489 -1.8665 -4.80067
Spine1  20.795 -3.2135 2.06672
HEad  -21.7711 36.8928 -19.9153
LeftShoulder1  0.973589 -0.652468 -16.7065
LeftArm  16.2913 1.68384 -63.0136
LeftForeArm  74.5933 -79.5345 -74.8031
LeftHand  -2.28543 -3.49607 29.5335
RightShoulder  0.475267 -1.01141 12.0987
RightArm  11.2588 -18.6835 60.5804
RightForeArm  133.682 68.1151 151.284
RightHand  -0.702213 3.1498 -9.76062
LeftUpLeg  -11.3179 -7.10366 14.3859
LeftLeg  29.2285 10.0343 6.35806
LeftFoot  0.973869 1.02911 -9.45922
LeftToes  -5.54824e-011 -8.71001e-011 8.3852e-012
43
root  -3.06826 39.4477 7.03393 -176.634 40.5729 176.201
RightUpLeg  -20.0782 1.55911 -11.2169
RightLeg  21.7585 0.200227 -0.0965181
RightFoot  0.63585 -1.87763 17.9139
RightToes  2.32829e-010 0 -3.6325e-017
Spine  9.87803 -1.66383 -4.87795
Spine1  18.8215 -2.74793 1.60414
HEad  -21.3559 37.4973 -20.0545
LeftShoulder1  0.984109 -0.705721 -16.6605
LeftArm  18.5585 5.23772 -61.8152
LeftForeArm  83.5075 -79.8717 -82.302
LeftHand  -2.30982 -4.11104 27.9917
RightShoulder  0.474861 -0.902389 11.1792
RightArm  12.2781 -20.2217 59.9052
RightForeArm  135.841 66.4836 153.623
RightHand  -0.608905 2.98491 -8.66285
LeftUpLeg  -10.5833 -6.83169 13.5943
LeftLeg  23.4054 8.91243 4.53786
LeftFoot  3.7725 1.84052 -13.9863
LeftToes  -5.54824e-011 -8.71001e-011 8.3852e-012
44
root  -4.01578 39.4536 6.51344 -175.398 43.1186 175.724
RightUpLeg  -21.8511 -2.76505 -12.4567
RightLeg  21.9534 -4.23074 -2.14562
RightFoot  0.348582 -1.93965 18.8035
RightToes  2.32829e-010 0 -3.6325e-017
Spine  8.5027 -1.31628 -5.40378
Spine1  17.7603 -2.36765 1.71452
HEad  -21.1934 37.9368 -20.0324
LeftShoulder1  1.07165 -1.17932 -16.1294
LeftArm  19.8764 8.55102 -60.9129
LeftForeArm  91.0407 -79.9215 -90.6098
LeftHand  -2.32268 -4.28354 27.6673
RightShoulder  0.465068 -0.830293 10.2007
RightArm  12.8054 -20.5055 59.2889
RightForeArm  137.594 65.2422 155.214
RightHand  -0.597582 3.03481 -8.4539
LeftUpLeg  -9.68501 -5.17271 12.8498
LeftLeg  19.5636 6.55324 2.90878
LeftFoot  2.82071 2.49897 -20.2495
LeftToes  -5.54824e-011 -8.71001e-011 8.3852e-012
45
root  -4.98482 39.1157 6.07449 -175.683 45.6755 175.324
RightUpLeg  -23.5818 -5.95481 -13.5317
RightLeg  27.7388 -8.87907 -5.28206
RightFoot  -3.31181 -1.31705 18.2949
RightToes  2.32829e-010 0 -3.6325e-017
Spine  8.26644 -0.947241 -5.73051
Spine1  17.3658 -1.86592 1.31742
HEad  -21.5506 38.2221 -20.0439
LeftShoulder1  1.11692 -1.51474 -15.4358
LeftArm  21.025 10.5684 -60.1565
LeftForeArm  97.0187 -79.7011 -99.0774
LeftHand  -2.43463 -4.24257 29.0457
RightShoulder  0.441205 -0.928101 9.91272
RightArm  12.8979 -19.1443 58.5534
RightForeArm  136.859 64.6088 155.807
RightHand  -0.68702 3.26079 -9.4395
LeftUpLeg  -8.21191 -2.26366 11.6855
LeftLeg  18.5325 3.55665 1.64446
LeftFoot  -2.82585 1.80122 -23.5049
LeftToes  -5.54824e-011 -8.71001e-011 8.3852e-012
46
root  -5.98687 38.4708 5.77616 -177.575 47.4837 174.743
RightUpLeg  -24.6008 -7.26384 -15.2035
RightLeg  36.948 -9.12853 -7.47391
RightFoot  -6.7588 -0.771576 17.9942
RightToes  2.32829e-010 0 -3.6325e-017
Spine  9.90508 -0.703229 -6.22733
Spine1  17.073 -1.59334 0.542071
HEad  -22.5943 38.0032 -20.4611
LeftShoulder1  1.09174 -1.42694 -15.319
LeftArm  22.1496 9.97434 -59.6439
LeftForeArm  90.2674 -79.6551 -94.8946
LeftHand  -2.63692 -4.25951 31.2795
RightShoulder  0.420435 -1.10302 10.3552
RightArm  12.2844 -16.3944 57.9408
RightForeArm  132.659 65.2692 154.666
RightHand  -0.796911 3.41583 -10.7308
LeftUpLeg  -7.60078 0.39574 10.0151
LeftLeg  21.4412 1.63293 1.04834
LeftFoot  -11.0012 0.154225 -22.203
LeftToes  -5.54824e-011 -8.71001e-011 8.3852e-012
